<svg xmlns="http://www.w3.org/2000/svg" viewBox="0 0 256 256" id="success-individual-large" aria-hidden="true" role="none" data-supported-dps="256x256" width="256" height="256">
  <path fill="#e9e5df" d="M0 178h256v78H0z"/>
  <path d="M128 0a128 128 0 01128 128H0A128 128 0 01128 0z" fill="#e8f3ff"/>
  <path d="M176.82 36.1c12.53.09 18.72-15.34 9.49-23.81l-.19-.18a26.18 26.18 0 00-24.84-5.39c-6.94 2.19-12.59 7.17-18.92 10.75a50.58 50.58 0 01-22.1 6.44c-4.4.24-16.27-.14-16.66 6.73-.35 6.14 10.63 5 14.26 5l48.75.34zM23.35 81.86a9.4 9.4 0 0112-10.81c2.55.8 4.61 2.63 6.94 3.94a18.58 18.58 0 008.09 2.36c1.61.09 6 0 6.1 2.46.13 2.25-3.89 1.84-5.22 1.85l-17.86.13z" fill="#fff"/>
  <path d="M249.67 45.3c11.14-34.68-18.5-50.45-48.9-42.11-19.28 6-24.36 24-18.44 42.11 3 9.26 10.95 11.36 13.2 19.6 2 7.33-2.24 14.16-2.55 21.43-.59 13.7 6.52 24.24 19 25.67h7.51c12.51-1.43 20.12-12 19.51-25.67-.31-7.27-4.56-14.1-2.55-21.43 2.27-8.24 10.19-10.34 13.22-19.6z" fill="#9db88f" fill-rule="evenodd"/>
  <path d="M237.41 36.24L215 53.1l-22.41-16.86c-1-.79-2.21.83-1.18 1.58L214.23 55a.91.91 0 00.74.35h.03a.87.87 0 00.75-.36l22.81-17.16a1 1 0 00-1.15-1.59z" fill="#7b9370"/>
  <path d="M227 26l-12 9.57L203 26a1 1 0 00-1.24 1.55l12.39 9.9a.91.91 0 00.78.4h.07a.94.94 0 00.79-.4l12.38-9.9A1 1 0 00227 26zM227 84.68l-12 9.57-12-9.57a1 1 0 00-1.24 1.55l12.39 9.9a.91.91 0 00.78.4h.07a.94.94 0 00.79-.4l12.38-9.9a1 1 0 00-1.17-1.55z" fill="#7b9370"/>
  <rect x="214" y="18" width="2" height="114" rx="1" fill="#7b9370"/>
  <path fill="#d6cec2" d="M0 184h256v6H0zM0 196h256v6H0zM0 208h256v6H0zM0 220h256v6H0zM0 232h256v6H0zM0 244h256v6H0z"/>
  <path d="M147.3 73a3.7 3.7 0 01-.45-2.46 31.51 31.51 0 00-1.72-16.45 1 1 0 00-1.31-.54l-.31-.51a.79.79 0 00-1.4.69c.57 1.53 1.87 6-.46 10a1 1 0 01-1.77-.09L138.63 61a1 1 0 00-1.89.83c.38.93 1 2.37 1.3 3.25.52 1.37-.4 3.19 2.7 7.56L143 86l10.47 6.23c-.23-.69-6.11-19.29-6.17-19.23zM197.81 69.05a13 13 0 00-16 6.64c-1.17 3.11-3.19 4.07-3.64 5.36s1.4 1.61.47 3.78c-1.47 3.93-1.28 4.16 2.24 7s-1.65 9.84-1.65 9.84L197 106c-3.43-9.44-2.07-9.37 4.47-14.4 8.04-5.97 6.05-19.36-3.66-22.55z" fill="#955646"/>
  <path d="M153.12 107.58l11.3 8.51S175.15 151.26 172 165h44l-10.89-52.64-28-10.29-21.48-9.84-8.9-20.93-11.2 5.24 8.07 18.88a29.88 29.88 0 009.52 12.16z" fill="#e09a33"/>
  <path fill="#7389a0" d="M121 124h33.35l3.8 22H175v2l-16.33-.03.01.03h-33.35L121 124z"/>
  <ellipse cx="139" cy="135.99" rx="2" ry="1.99" fill="#b4c6d9"/>
  <path d="M181 146c-4-2-4.8-1.89-8-2-2.8-.1-4.41 1.74-4 2h4c.57.36.41.57-.33.81L169 148h-6c1.57 1.47 3.54 4.21 6 4h18v-6z" fill="#955646"/>
  <path d="M213 122c-4.5-10.33-10-10-10-10l-2 2c-3.74 4.15-2.58 10.45-.47 15.62l4.75 9.08a1.47 1.47 0 01-.88 2.08L187 146v8l22.6-3.48a8.45 8.45 0 005.47-3.27l1.51-2a8.44 8.44 0 001.43-7.17c-1.19-4.6-3.24-12.02-5.01-16.08z" fill="#e3a447"/>
  <path d="M187.3 236.25l-3.6-12.11-14.93-.14s9.76 9.69 8.64 13.09l1.18 4.84 8.5-.91.36-4.18z" fill="#56687a"/>
  <path d="M187.3 236.25l3.44 6.5a2.87 2.87 0 01-1.85 4.12l-22.35 5.95a3 3 0 01-2.63-5l.33-.31s5.11-2.45 7.37-3.91c6.55-4.22 5.8-6.49 5.8-6.49 8.01 5.89 9.89-.86 9.89-.86z" fill="#0d2135"/>
  <path d="M205.1 102.37c-.38-3.66 2.7-6.87 2.91-10.55a13.78 13.78 0 00-.68-4.35c-.24-.89.68-6 .54-7.23-.41-9.4-8.49-14.77-18.43-11.25 3.66 10.72.39 31-12.44 33 .19.66.87 14.89 23.44 14.66 4 0 7-1.91 6.61-5.37 0 .01-1.3-5.28-1.95-8.91z" fill="#ffd1c4"/>
  <path d="M216 164h-44l-1 2s-11.58 4-15.19 7.31c-4.19 3.81-6.56 8.41-6.31 13.88A40.54 40.54 0 00155 206c10 18 13.6 26 13.6 26H210l-17.54-35.73a4.35 4.35 0 014.15-6.27h4.94c13.89 0 17.66-9 14.45-26z" fill="#f3ba64"/>
  <path d="M216.3 245.31L209.76 232H197c4.73 4.32 7.06 10 9.12 16.25L215 250z" fill="#56687a"/>
  <path d="M216.3 245.31l2.56 6.52c.45 1.81.06 4.17-3.53 4.17h-23.94c-3.14-.08-3.49-4.81-.41-5.39.2 0 14.15-3.63 13.84-6.08 6.04 5.09 11.48.78 11.48.78zM134.93 235.6l10.64-11.25c-3.63-4-3.93-2.78-6.43-5.29l-2.31-2.31-6.46 6.83c5.45 6.5-.91 6.84 4.56 12.02z" fill="#0d2135"/>
  <path fill="#95abc1" d="M130.38 223.61L126 220l6-8 4.86 4.78-6.48 6.83z"/>
  <path d="M128.21 66.28a29.68 29.68 0 010-4.07c.33-1.39-.91-2.16-1.81-1.09l-.28 2.88c-.44.69-.24.41-.34.18-1.86-4.32.07-8.68.85-10.16a.8.8 0 00-1.33-.87l-.38.46a1 1 0 00-1.39.38 32 32 0 00-3.9 16.38c-.16 2.79-11 24.41-12.28 27.54L115 102l10.58-28.8c3.65-3.98 2.68-5.28 2.63-6.92zM80.34 82.94c0-.3 0-.62-.07-.93a12.75 12.75 0 00-12.66-11.3C57.67 70.5 51.37 82.29 57 90.42c4.39 6.07 4.17 10.67-.49 16.36l17.83.11c-.4-.87-2.11-8.66 1.65-9.65 4.16-1.47 4.41-1.62 4.32-5.73-.16-2.31 1.66-2 1.66-3.35s-1.32-2.57-1.63-5.22z" fill="#955646"/>
  <path d="M77 71.14c-3.25-3.34-4.22-2.74-9.12-2.23-3.15.33-4.92-2-6.76-.26-1.68 1.56-1.36 3.4-3.15 4.13-2 .81-3.41 0-4.85 2.73s1.08 6.14-.85 8.92c-.84 1.78.6 3.32 1.14 4.89.24 1.4-1 2.14-1.15 3.54-.24 1.83 1.39 3.18 2.84 3.7.94.5 1.73 1.44 2.79 1.44 1.65 0 2.38-1.89 3.62-2.68 2.47-.84 4.9-3.66 4-6.32s-1.45-3.35-1.17-4.32v-.05a3.18 3.18 0 013.15-2.77 3.15 3.15 0 011.47.38c1.18.86 2.3.8 2.88.06s1.43 0 2.47-1.14c.73-.81-.44-1.81.81-2.86 1.87-1.57 5.21 1 5.94-1.27 1.27-3.64-1.14-2.88-4.06-5.89zM74.22 106.65c-.25-.87-1.13-4.3-.46-6.84H60.08a15.29 15.29 0 01-3 6.1L58 162h20l.35-55.35z" fill="#0d2135"/>
  <path d="M59.08 102.71C74.62 137.71 70 162 70 162H44c-3.33-39.67-5.41-45.8.83-50.5 3.36-2.52 6.5-4.75 6.5-4.75z" fill="#e7592f"/>
  <path d="M78.59 256H62.2c-.42-5.38.81-7.56 1.39-11.57H73c1 8.43 5.59 4.04 5.59 11.57z" fill="#0d2135"/>
  <path d="M76 238c-1.49 1.55-3 6.43-3 6.43h-9.4A20.61 20.61 0 0166 238z" fill="#95abc1"/>
  <path d="M73.62 104l1.87 58.78H86.7l5.74-37.34L106 117.7c6.45-3.44 10.2-6 11.5-13.25L124.27 77 117 75.7c-8.75 15.5-14 22.5-14 22.5z" fill="#e7592f"/>
  <path d="M80 188l-16.73 50.2A2.88 2.88 0 0066 242h13.39a6.62 6.62 0 006.21-4.33L104 188z" fill="#394450"/>
  <path d="M100.18 173.42a20.42 20.42 0 00-15.32-7.18L76 162H44l-2.32 13.75C41.7 182.21 46 190 54.81 190H84l32 34a5.57 5.57 0 008 0l10-10z" fill="#57697b"/>
  <path fill="#dce6f1" d="M81.82 174H102l4.11-24H85.93l-4.11 24z"/>
  <path d="M88.21 158.86l-2.46 1-1.37-.61.37-2.29h-2.17a11.4 11.4 0 01-4.79.16L74 162.71c2 1.63 4.1 5.26 6.85 4.67 1.36-.28 3.28-.18 3.73-1.86.89-.37 2.69-.62 2.76-1.87l.11-.76c1-.41 1.13-1.22 1.12-2.2l.5-.42a.84.84 0 00-.86-1.41z" fill="#bf7461"/>
  <path d="M52.08 106.42l5.09 35.16L78 157.08l-6.5 9.46L53.33 156a21.38 21.38 0 01-8.94-12l-3.14-20.16c-2.4-9.46 3.92-15.32 10.83-17.42z" fill="#ef775b"/>
  <path d="M37.7 158a1.3 1.3 0 011.3 1.3v4.7H25v-4.7a1.3 1.3 0 011.3-1.3h11.4m0-2H26.3a3.3 3.3 0 00-3.3 3.3v6.7h18v-6.7a3.3 3.3 0 00-3.3-3.3z" fill="#56341b"/>
  <path d="M9 182h46v6a2 2 0 01-2 2H11a2 2 0 01-2-2v-6z" fill="#a38163"/>
  <path fill="#795a40" d="M9 178h46v6H9z"/>
  <path d="M9 162h46v17.84a2.16 2.16 0 01-2.16 2.16H11.16A2.16 2.16 0 019 179.84V162z" fill="#b7a08b"/>
  <path fill="#56341b" d="M17 162h4v20h-4z"/>
  <path fill="#3a210f" d="M17 182h4v8h-4zM43 182h4v8h-4z"/>
  <path d="M21 174v6h-4v-6h4m0-1h-4a1 1 0 00-1 1v6a1 1 0 001 1h4a1 1 0 001-1v-6a1 1 0 00-1-1z" fill="#98b8bf"/>
  <path fill="#56341b" d="M43 162h4v20h-4z"/>
  <path d="M47 174v6h-4v-6h4m0-1h-4a1 1 0 00-1 1v6a1 1 0 001 1h4a1 1 0 001-1v-6a1 1 0 00-1-1z" fill="#98b8bf"/>
</svg>
