<svg xmlns="http://www.w3.org/2000/svg" viewBox="0 0 256 256" id="main-person-3-large" aria-hidden="true" role="none" data-supported-dps="256x256" width="256" height="256">
  <path d="M128 0a128 128 0 01128 128H0A128 128 0 01128 0z" fill="#f3f2ef"/>
  <path fill="#c4bbb7" d="M102 6h60v44h-60z"/>
  <path fill="#fff" d="M104 8h56v40h-56z"/>
  <path d="M114 40V16h36v24z" fill="#b0bfbc"/>
  <path d="M125.25 24.11C133.29 26.8 134 22 138 28c.45.67 2 2 7.5.11 1.63-.56 3.34.34 4.5 0v8h-36v-10c.83-1.54 2.24-3.5 4.5-4s3.5.89 6.75 2z" fill="#dbe7e9"/>
  <path d="M135.25 34c-8 2.69-11.46-5.35-14.5-2a5.79 5.79 0 01-2.25 2 6.78 6.78 0 01-4.5 0v6h36v-8c-.83-1.54-11.52.92-14.75 2z" fill="#dbdab2"/>
  <circle cx="143" cy="23" r="3" fill="#fce2ba"/>
  <path d="M108.26 122H256v15.74a6.26 6.26 0 01-6.26 6.26H102v-15.74a6.26 6.26 0 016.26-6.26z" fill="#69aad6"/>
  <path fill="#84b2d8" d="M182 144h74v102h-74z"/>
  <path fill="#749bb5" d="M182 164h64v82h-64z"/>
  <path fill="#c4bbb7" d="M188 28h56v68h-56z"/>
  <path fill="#fff" d="M190 30h52v64h-52z"/>
  <path fill="#fce2ba" d="M198 40h36v44h-36z"/>
  <path d="M213.45 80.17c5.84 2.22 11.7-2.52 13.74-7.86 1.88-4.56 5.81-21.1-1.14-22.31-1.45.08-2.39 1.55-2.9 2.91-.93 2.48-1.29 5.16-2.51 7.51-2.81 5.42-7.69 4.21-12.07 1.71-3.76-2.19-8.15.38-3.95 5.91 1.44 1.89 6.64 5.42 8.76 4.33 1.63-.86 3.27-2.73 5.29-2.05a2.76 2.76 0 011.38 3.53 4.36 4.36 0 01-3.22 2.48c-1.47.31-3.48.19-4.28 1.73a1.56 1.56 0 00.9 2.11z" fill="#f8c77e"/>
  <path d="M202 47.41v11.76a1.18 1.18 0 002 .86 5.12 5.12 0 013.23-1.62c1.54-.15 2.93 1.29 4.46 1.08 3.5-.72 3.13-5.43.15-6.71-.85-.42-1.9-.67-2.31-1.52s.81-1.38 2.1-4c1.64-3.36-3.21-3.22-3.21-3.22h-3a3.41 3.41 0 00-3.42 3.37zM221.61 42.54a7.48 7.48 0 00-5.49 8.53c.18 1 .86 2.22 1.91 2.17s1.63-1.36 2.16-2.35a6.7 6.7 0 015.71-3.52c1 0 1.91.18 2.86.09 2-.07 3.24-2.08 1.83-3.67-2.42-2.23-5.42-2.05-8.98-1.25zM201.23 76.69c-1-1.55-1-4.52 1.27-4.69 1.9.07 2.39 2.67 4.05 3.2.67.22 1.43.06 2.07.36 1.84 1 .82 3.61-1 4a5.89 5.89 0 01-6.39-2.87z" fill="#f8c77e"/>
  <path fill="#a69b95" d="M16 154h2v24h-2z"/>
  <path d="M12.17 247.85A3.17 3.17 0 019 244.38l6.16-66.47 2 .18L11 244.57a1.12 1.12 0 00.3.9 1.22 1.22 0 002-.61l10.34-67 2 .3-10.34 67a3.16 3.16 0 01-3.13 2.69zM78.49 249a3.16 3.16 0 01-3.14-2.69L65 179.3l2-.3 10.34 67a1.22 1.22 0 002 .62 1.19 1.19 0 00.3-.9l-6.14-66.48 2-.18 6.15 66.47a3.17 3.17 0 01-3.16 3.47z" fill="#a69b95"/>
  <path d="M16 156a6 6 0 01-5.86-4.76l-8-38a6 6 0 1111.74-2.48l8 38A6 6 0 0116 156z" fill="#d9b6a3"/>
  <rect x="10" y="176" width="72" height="12" rx="6" fill="#d9b6a3"/>
  <path fill="#a96c3f" d="M74.89 228L78 215.85h18L92.89 228h-18zM134.29 219.84l-2-8h-16l2 8h16z"/>
  <path d="M107.11 213.85l-14-62h18.08a18.68 18.68 0 0118.45 15.71l6.52 40.4a5.09 5.09 0 01-5 5.89z" fill="#264666"/>
  <path d="M120.29 236h18l-3.71-14.82a1.55 1.55 0 00-1.5-1.18H119a1.54 1.54 0 00-1.51 1.84zM94.29 238v-10.71A1.29 1.29 0 0093 226H73.93l-1.64 14z" fill="#dbe7e9"/>
  <path d="M117.49 232.5a9 9 0 00.34 5.49 6.06 6.06 0 005.65 4c8.7.08 30.69.25 30.9 0 4.27-.26 6.61-6.56 1.52-7.67-7.09-1.18-15.63-5.56-20.72-12.49-2.92 6.68-9.89 7.41-12.7 5.65a2.84 2.84 0 00-4.38 1.78c-.19 1.02-.59 3.17-.61 3.24zM70.53 238.27a9 9 0 008.54 11.66c12.36.07 29.79.14 30-.09 4.68-.25 7.24-6.4 1.66-7.51-7.77-1.18-10.84-3.56-16.42-10.49-6.57 6.16-12.77 6.78-18.3.78-1.23-1.34-3.55-.51-4.09 1.23-.44 1.33-.92 2.85-1.39 4.42z" fill="#6e7769"/>
  <path d="M78 219.85h23.5a6.46 6.46 0 005.87-3.75l17.74-38.25s10.22-21.33-6-26c-21.85-6.29-48-12-48-12l-46 18A24.46 24.46 0 0048.8 176l42.31-.1-15.86 39.87a3 3 0 002.75 4.08z" fill="#3a5570"/>
  <path d="M97.77 72.26c.5.46 1.37.38 1.78.94.23.32.22.76.43 1.11a3.25 3.25 0 001 .86 2.73 2.73 0 01.93 2.82c-.68 2.35-2.37 6.59-2.22 9.31l-.52 10.54L88 96.21s2.9-9.16 2.53-11.44c.23-2.13-1.15-4-2.16-5.73l-1.83-3.23c-.4-.56-.15-2.65-.21-3.29.2-1.3 2-.23 2 .67l.19 1.37 1 1.31c1.24-2.13-.09-5.08 1.37-7.17a1.83 1.83 0 012.45-.59c.48.37.7 1.08 1.28 1.29.92.09 2 0 2.44 1 .26.6.21 1.4.71 1.86z" fill="#a96c3f"/>
  <path d="M100 90H88.29l-2.67 13.19a1.52 1.52 0 01-3 .07l-5.15-20.77a15.37 15.37 0 00-10.09-10.86C65.12 68 61.57 64.64 56 64c.14 0-19.53-3.28-28.69 29.84-10.76 38.88-2.2 64-2.2 64l46-18v-14H100z" fill="#bebf8c"/>
  <path fill="#fce2ba" d="M134 132h-32v-4h32z"/>
  <path d="M56.6 57.9a17.4 17.4 0 01-1.73-4.74c-3.42-16.61 17-29.32 30.52-16.53a14.71 14.71 0 012.17 2.69c2 3.16 2.57 5.3 2.61 9.83 0 2.76-.49 3 1.21 5.81.54.88 1.08 1.29 1 2.58 0 .88-.76 1.4-1.49 1.93-1.07.77-1.17 1.1-1.28 3-.09 1.46-.25 4.16-1.5 5.47-3 3.15-7.15 0-11 3.92-4.5 4.57-7.8 6-7.8 6S65.46 65.66 55.11 64a4.47 4.47 0 002-4.15c0-1.83-.51-2-.51-2z" fill="#a96c3f"/>
  <path d="M89.18 42.25c-1.68.56-2.85 5-6.07 2.84-1.88-1.26-6.56-.62-4.94 4a2.46 2.46 0 01-1.06 2.82 4.26 4.26 0 00-3.32-2 4.31 4.31 0 00-4.66 4C68.43 56.75 68 62 56.62 62c-.26-4.88-7.4-5.34-5.51-12.15 1.94-7-1.31-7 2.88-10.29 3-2.37 4.12-6.47 8.12-8.15 3.82-1.6 5.18-.05 7.89-1.41 4-2 5.39-.81 8.11.09 4 1.32 3 3 9.72 3.68 5.96.6 4.35 7.48 1.35 8.48z" fill="#2d1d19"/>
  <path d="M103.178 98.673l1.82-.828 11.599 25.485-1.82.828z"/>
  <path d="M77.11 128h43.18v-3a3.45 3.45 0 00-1.84-3l-5.67-3.15a4 4 0 00-3.14-.32l-6.58 2a12 12 0 01-5.23.41l-20.72-3z" fill="#a96c3f"/>
  <path d="M57.37 128c-7.63 0-14.2-5-15.69-11.62a196.35 196.35 0 01-4.5-36.54c-.25-6.54 5.09-12.13 10-12 2.45.07 11.47.45 12.74 12 1.57 14.32 2.61 23.41 3.26 28 3.87 1.91 15.73 5.5 21.54 7.21a4.57 4.57 0 013.28 4.39V128H57.37z" fill="#d4d698"/>
  <path fill="#546366" d="M210 238h2v8h-2zM236 238h2v8h-2z"/>
  <circle cx="211" cy="249" r="5" fill="#b0bfbc"/>
  <circle cx="211" cy="249" r="2.5" fill="#546366"/>
  <circle cx="237" cy="249" r="5" fill="#b0bfbc"/>
  <circle cx="237" cy="249" r="2.5" fill="#546366"/>
  <path fill="#b0bfbc" d="M206 237.5h36v4.5h-36z"/>
  <path fill="#d8dfe1" d="M206 176h36v62h-36z"/>
  <path fill="#546366" d="M206 212h32v8h-32z"/>
  <circle cx="234" cy="216" r="2" fill="#d2ff8a"/>
  <path fill="#a3a3a3" d="M220 182h22v2h-22zM220 186h22v2h-22zM220 190h22v2h-22zM220 194h22v2h-22zM220 198h22v2h-22z"/>
  <path d="M145.72 134h8.56a5.72 5.72 0 015.72 5.72v.28h-20v-.28a5.72 5.72 0 015.72-5.72z" fill="#fff"/>
  <path d="M158.15 130h36v-3.84A10.16 10.16 0 00184 116h-25.85z" fill="#a69b95"/>
  <path d="M159.38 116h22a5.68 5.68 0 004.52-2.1 5.31 5.31 0 00.64-5.41L168.2 60.7a1.26 1.26 0 00-1.59-.62 1.07 1.07 0 00-.7 1.42l18.33 47.77a3.33 3.33 0 01-.35 3.37 2.76 2.76 0 01-2.51 1.36h-22c-.68 0-1.23.36-1.23 1a1.12 1.12 0 001.23 1z" fill="#546366"/>
  <path d="M165.08 23.3a2 2 0 00-1.68-1.3l-4.81-.51a2 2 0 00-2.2 1.78L148 102.84a2 2 0 001.78 2.2l5.77.6a2 2 0 001.94-1A96 96 0 00170 65.94a95.1 95.1 0 00-4.92-42.64z" fill="#546366"/>
  <path d="M206 176a8 8 0 00-8 8v48a2 2 0 01-4 0v-84.25a7.76 7.76 0 017.75-7.75H216a6 6 0 000-12h-21.94l-.06 2h22a4 4 0 010 8h-14.25a9.76 9.76 0 00-9.75 9.75V232a4 4 0 008 0v-48a6 6 0 016-6h4v-2z" fill="#d8dfe1"/>
  <path d="M158.586 21.497a2 2 0 011.78 2.199l-8.586 81.549-3.978-.419 8.585-81.55a2 2 0 012.199-1.779z" fill="#323e48"/>
</svg>
